<svg xmlns="http://www.w3.org/2000/svg" version="1.1" xmlns:xlink="http://www.w3.org/1999/xlink" width="512" height="512"><svg xmlns="http://www.w3.org/2000/svg" version="1.1" xmlns:xlink="http://www.w3.org/1999/xlink" width="512" height="512"><svg id="a" xmlns="http://www.w3.org/2000/svg" width="512" height="512" viewBox="0 0 512 512"><path d="M257.661,433.274c-77.171,0-142.012-23.234-177.898-63.745-26.011-29.349-36.512-66.363-31.213-110.019,12.711-104.775,94.792-172.476,209.112-172.476,115.824,0,199.865,69.38,209.126,172.643,4.152,46.357-7.251,84.639-33.896,113.779-35.273,38.573-97.505,59.817-175.23,59.817Z" fill="#fff"></path><path d="M257.661,92.368c28.056,0,54.593,4.122,78.873,12.253,23.559,7.889,44.587,19.407,62.501,34.235,36.437,30.16,58.028,72.105,62.439,121.297,4.014,44.806-6.927,81.716-32.518,109.704-34.251,37.456-95.085,58.084-171.295,58.084-75.645,0-139.031-22.579-173.908-61.95-24.953-28.156-35.016-63.765-29.909-105.839,6.071-50.042,28.326-92.23,64.36-122.005,36.245-29.95,84.469-45.78,139.458-45.78M257.661,81.701c-117.187,0-201.349,69.542-214.406,177.167-5.49,45.229,5.448,83.656,32.516,114.198,36.901,41.656,103.198,65.542,181.891,65.542,79.24,0,142.875-21.865,179.167-61.552,27.698-30.292,39.562-69.948,35.271-117.854-9.521-106.167-95.698-177.5-214.437-177.5h0Z" fill="#f2f2f2"></path><path d="M101.567,225.737c-40.557,0-73.552-32.995-73.552-73.552s32.995-73.557,73.552-73.557,73.557,32.998,73.557,73.557-32.998,73.552-73.557,73.552Z"></path><path d="M101.567,83.962c37.619,0,68.224,30.605,68.224,68.224s-30.605,68.219-68.224,68.219-68.219-30.603-68.219-68.219,30.603-68.224,68.219-68.224M101.567,73.295c-43.5,0-78.885,35.391-78.885,78.891s35.385,78.885,78.885,78.885,78.891-35.385,78.891-78.885-35.391-78.891-78.891-78.891h0Z" fill="#f2f2f2"></path><path d="M101.569,215.07c-34.676,0-62.886-28.211-62.886-62.887s28.21-62.886,62.886-62.886,62.886,28.21,62.886,62.886-28.21,62.887-62.886,62.887Z"></path><path d="M101.569,94.631c31.735,0,57.553,25.818,57.553,57.553s-25.818,57.553-57.553,57.553-57.553-25.818-57.553-57.553,25.818-57.553,57.553-57.553M101.569,83.964c-37.677,0-68.22,30.543-68.22,68.22s30.543,68.22,68.22,68.22,68.22-30.543,68.22-68.22-30.543-68.22-68.22-68.22h0Z"></path><path d="M409.38,225.737c-40.557,0-73.553-32.995-73.553-73.552s32.996-73.557,73.553-73.557,73.553,32.998,73.553,73.557-32.996,73.552-73.553,73.552Z"></path><path d="M409.38,83.962c37.616,0,68.219,30.605,68.219,68.224s-30.603,68.219-68.219,68.219-68.219-30.603-68.219-68.219,30.603-68.224,68.219-68.224M409.38,73.295c-43.5,0-78.885,35.391-78.885,78.891s35.385,78.885,78.885,78.885,78.885-35.385,78.885-78.885-35.385-78.891-78.885-78.891h0Z" fill="#f2f2f2"></path><path d="M409.377,215.07c-34.676,0-62.887-28.211-62.887-62.887s28.211-62.886,62.887-62.886,62.887,28.21,62.887,62.886-28.211,62.887-62.887,62.887Z"></path><path d="M409.377,94.631c31.735,0,57.553,25.818,57.553,57.553s-25.818,57.553-57.553,57.553-57.553-25.818-57.553-57.553,25.818-57.553,57.553-57.553M409.377,83.964c-37.677,0-68.22,30.543-68.22,68.22s30.543,68.22,68.22,68.22,68.22-30.543,68.22-68.22-30.543-68.22-68.22-68.22h0Z"></path><path d="M257.66,422.605c-74.118,0-136.049-21.923-169.915-60.146-23.896-26.972-33.522-61.176-28.609-101.663,5.939-48.935,27.536-90.027,62.458-118.832,35.104-28.957,82.155-44.262,136.066-44.262,109.995,0,189.769,65.476,198.505,162.928,3.878,43.249-6.6,78.788-31.142,105.628-33.225,36.336-92.662,56.348-167.363,56.348Z" fill="#fff"></path><path d="M257.66,103.035c107.079,0,184.717,63.524,193.193,158.07,3.738,41.696-6.277,75.864-29.766,101.553-32.202,35.218-90.241,54.613-163.428,54.613-34.455,0-67.484-5.015-95.516-14.503-29.911-10.124-53.599-24.876-70.406-43.846-22.84-25.78-32.027-58.578-27.306-97.484,5.771-47.551,26.711-87.442,60.557-115.36,34.137-28.159,80.015-43.043,132.672-43.043M257.66,92.369c-112.565,0-191.387,65.354-203.818,167.785-14.15,116.6,91.252,167.785,203.818,167.785s214.786-45.441,203.817-167.785c-8.989-100.265-91.252-167.785-203.817-167.785h0Z"></path><path d="M257.66,290.025c-8.028,0-18.189-8.943-21.318-18.764-.997-3.13-.599-5.952,1.183-8.39,3.266-4.469,10.793-7.136,20.135-7.136,9.134,0,16.626,2.787,20.04,7.455,1.777,2.43,2.207,5.146,1.276,8.074-3.009,9.468-13.567,18.76-21.316,18.76Z"></path><path d="M257.66,261.07c8.769,0,13.958,2.839,15.736,5.27.777,1.063.917,1.991.497,3.31-2.462,7.747-11.233,15.042-16.234,15.042-5.667,0-13.861-7.595-16.236-15.049-.6-1.883-.131-2.888.406-3.623,1.669-2.283,6.816-4.95,15.83-4.95M257.66,250.403c-19.912,0-30.216,10.497-26.399,22.478,3.623,11.372,15.374,22.478,26.399,22.478,10.408,0,22.793-11.13,26.399-22.478,3.808-11.983-7.627-22.478-26.399-22.478h0Z"></path><line x1="257.66" y1="362.696" x2="257.66" y2="290.292" fill="none" stroke="#000" stroke-linecap="round" stroke-miterlimit="10" stroke-width="8"></line><path d="M179.556,338.655h0c51.211,32.054,104.997,32.054,156.208,0h0" fill="none" stroke="#000" stroke-linecap="round" stroke-miterlimit="10" stroke-width="8"></path><path d="M173.406,246.203c-4.641,30.932-31.675,39.145-47.793,21.156-16.118-17.988-10.299-49.492,12.996-70.365,23.295-20.873,61.09-27.082,71.364-5.223,11.052,23.515-32.361,26.399-36.567,54.431Z" stroke="#000" stroke-linecap="round" stroke-miterlimit="10" stroke-width="10.667"></path><path d="M341.858,246.203c4.641,30.932,31.675,39.145,47.793,21.156,16.118-17.988,10.299-49.492-12.996-70.365-23.295-20.873-61.09-27.082-71.364-5.223-11.052,23.515,32.361,26.399,36.567,54.431Z" stroke="#000" stroke-linecap="round" stroke-miterlimit="10" stroke-width="10.667"></path></svg></svg><style>@media (prefers-color-scheme: light) { :root { filter: none; } }
@media (prefers-color-scheme: dark) { :root { filter: none; } }
</style></svg>